<?xml version="1.0" encoding="utf-8"?>
<!-- Generator: Adobe Illustrator 16.0.4, SVG Export Plug-In . SVG Version: 6.00 Build 0)  -->
<!DOCTYPE svg PUBLIC "-//W3C//DTD SVG 1.1//EN" "http://www.w3.org/Graphics/SVG/1.1/DTD/svg11.dtd">
<svg version="1.1" id="_x34__Teal__x26__Dark_Gray" xmlns="http://www.w3.org/2000/svg" xmlns:xlink="http://www.w3.org/1999/xlink"
	 x="0px" y="0px" width="339.255px" height="290.391px" viewBox="0 0 339.255 290.391" enable-background="new 0 0 339.255 290.391"
	 xml:space="preserve">
<g>
	<path fill="#FFFFFF" d="M296.825,263.297c-3.625,2.326-7.391,4.372-11.227,6.1c-43.573,19.611-94.978,0.118-114.589-43.455
		c-19.612-43.572-0.119-94.978,43.454-114.589c43.572-19.612,94.977-0.118,114.589,43.455c11.378,25.279,9.949,54.406-3.724,78.451
		l13.927,44.384L296.825,263.297z"/>
	<path id="Right_Bubble_1_" fill="#414142" d="M323.8,157.171c-18.338-40.742-66.231-58.904-106.974-40.566
		c-40.741,18.338-58.903,66.231-40.565,106.973c18.338,40.74,66.23,58.903,106.973,40.565c4.545-2.046,8.792-4.478,12.757-7.208
		l34.377,11.621l-11.302-36.016C332.491,210.517,335.187,182.468,323.8,157.171 M233.164,201.965c-4.38,0-7.942-4.127-7.942-9.207
		c0-5.083,3.562-9.203,7.942-9.203s7.942,4.12,7.942,9.203C241.106,197.838,237.543,201.965,233.164,201.965 M267.666,201.965
		c-4.381,0-7.943-4.127-7.943-9.207c0-5.083,3.562-9.203,7.943-9.203c4.379,0,7.942,4.12,7.942,9.203
		C275.608,197.838,272.044,201.965,267.666,201.965 M302.167,201.965c-4.394,0-7.956-4.127-7.956-9.207
		c0-5.083,3.562-9.203,7.956-9.203c4.393,0,7.942,4.12,7.942,9.203C310.109,197.838,306.559,201.965,302.167,201.965"/>
	<path fill="#FFFFFF" d="M125.146,0C56.03,0,0,56.029,0,125.145c0,42.609,21.3,80.237,53.828,102.837l3.698,62.408l50.142-41.321
		c5.713,0.799,11.545,1.221,17.478,1.221c69.115,0,125.146-56.029,125.146-125.145S194.261,0,125.146,0"/>
	<path id="Left_Bubble_Top_1_" fill="#24ACA9" d="M242.584,101.234c-0.964-0.307-1.98-0.466-3.041-0.466h-6.253
		c-1.409-11.467-11.212-20.379-23.061-20.379h-63.254c-10.1,0-18.716,6.475-21.906,15.483c-3.2-9.008-11.805-15.483-21.904-15.483
		H39.898c-11.848,0-21.65,8.912-23.06,20.379h-6.242c-1.038,0-2.055,0.159-3.031,0.466C18.333,46.18,66.848,4.628,125.069,4.639
		c16.436,0,32.1,3.317,46.354,9.315c13.978,5.86,26.621,14.317,37.303,24.744c0.679,0.668,1.368,1.346,2.035,2.025
		C226.71,57.064,238.028,77.941,242.584,101.234"/>
	<path id="Left_Bubble_Bottom_1_" fill="#24ACA9" d="M244.789,126.562c-1.155,65.132-54.312,117.568-119.719,117.568
		c-6.368,0-12.621-0.499-18.725-1.463l-41.68,34.251c-0.922,0.741-1.749,0.847-2.289,0.392c-0.043-0.031-0.074-0.053-0.095-0.095
		c-0.329-0.329-0.53-0.89-0.552-1.643l-1.187-50.285c-20.325-13.035-36.455-32.035-45.907-54.534
		c-5.734-13.628-9.018-28.549-9.283-44.191c1.568,0.922,3.348,1.431,5.245,1.431h6.072v18.884c0,12.802,10.418,23.219,23.23,23.219
		h63.266c10.1,0,18.705-6.464,21.905-15.482c3.19,9.019,11.806,15.482,21.906,15.482h63.255c12.812,0,23.24-10.417,23.24-23.219
		v-18.884h6.072C241.44,127.993,243.22,127.483,244.789,126.562"/>
	<path id="Left_Eye_1_" fill="#414142" d="M94.057,122.183c0,8.569-6.942,15.52-15.52,15.52c-8.567,0-15.519-6.951-15.519-15.52
		c0-8.567,6.952-15.519,15.519-15.519c4.013,0,7.668,1.524,10.423,4.022l-7.502,10.882l12.516-1
		C94.029,121.1,94.057,121.642,94.057,122.183"/>
	<path id="Glasses_1_" fill="#414142" d="M239.543,107.127H227.11v-3.513c0-9.311-7.55-16.869-16.874-16.869h-63.263
		c-9.322,0-16.874,7.558-16.874,16.869v3.513h-10.063v-3.513c0-9.311-7.549-16.869-16.871-16.869H39.898
		c-9.32,0-16.87,7.558-16.87,16.869v3.513H10.594c-1.442,0-2.751,0.807-3.695,2.123c-0.946,1.318-1.526,3.121-1.526,5.129
		c0,4.007,2.337,7.256,5.221,7.256h12.434v25.239c0,9.311,7.55,16.869,16.87,16.869h63.267c9.322,0,16.871-7.559,16.871-16.869
		v-25.239h10.063v25.239c0,9.311,7.552,16.869,16.874,16.869h63.263c9.324,0,16.874-7.559,16.874-16.869v-25.239h12.434
		c2.883,0,5.223-3.249,5.223-7.256C244.766,110.371,242.426,107.127,239.543,107.127 M107.915,141.466
		c0,6.983-5.668,12.653-12.654,12.653H47.812c-6.993,0-12.655-5.67-12.655-12.653v-19.831v-12.613c0-0.649,0.053-1.283,0.148-1.895
		c0.908-6.091,6.161-10.758,12.507-10.758h47.449c6.336,0,11.59,4.667,12.512,10.758c0.089,0.612,0.142,1.246,0.142,1.895v12.613
		V141.466z M214.987,141.466c0,6.983-5.668,12.653-12.652,12.653h-47.452c-6.994,0-12.653-5.67-12.653-12.653v-19.831v-12.613
		c0-0.649,0.053-1.283,0.145-1.895c0.915-6.091,6.167-10.758,12.508-10.758h47.452c6.335,0,11.591,4.667,12.511,10.758
		c0.091,0.612,0.142,1.246,0.142,1.895v12.613V141.466z"/>
	<path id="Right_Eye_1_" fill="#414142" d="M187.116,122.183c0,8.569-6.94,15.521-15.521,15.521
		c-8.565,0-15.519-6.952-15.519-15.521c0-8.567,6.953-15.519,15.519-15.519c4.016,0,7.668,1.524,10.424,4.022l-7.502,10.882
		l12.518-1C187.089,121.1,187.116,121.642,187.116,122.183"/>
</g>
</svg>
